<?xml version="1.0" encoding="UTF-8" standalone="no"?>
<!-- Created with Inkscape (http://www.inkscape.org/) -->

<svg
   xmlns:dc="http://purl.org/dc/elements/1.1/"
   xmlns:cc="http://creativecommons.org/ns#"
   xmlns:rdf="http://www.w3.org/1999/02/22-rdf-syntax-ns#"
   xmlns:svg="http://www.w3.org/2000/svg"
   xmlns="http://www.w3.org/2000/svg"
   xmlns:sodipodi="http://sodipodi.sourceforge.net/DTD/sodipodi-0.dtd"
   xmlns:inkscape="http://www.inkscape.org/namespaces/inkscape"
   width="185.94431mm"
   height="43.877804mm"
   viewBox="0 0 185.9443 43.877804"
   version="1.1"
   id="svg8"
   inkscape:version="0.92.3 (2405546, 2018-03-11)"
   sodipodi:docname="planprintlogowhite.svg">
  <defs
     id="defs2" />
  <sodipodi:namedview
     id="base"
     pagecolor="#ffffff"
     bordercolor="#666666"
     borderopacity="1.0"
     inkscape:pageopacity="0.0"
     inkscape:pageshadow="2"
     inkscape:zoom="1.4"
     inkscape:cx="338.51818"
     inkscape:cy="62.65563"
     inkscape:document-units="mm"
     inkscape:current-layer="layer1"
     showgrid="false"
     inkscape:snap-page="false"
     showguides="true"
     inkscape:guide-bbox="true"
     inkscape:snap-to-guides="true"
     inkscape:snap-grids="true"
     inkscape:window-width="1920"
     inkscape:window-height="1027"
     inkscape:window-x="-8"
     inkscape:window-y="-8"
     inkscape:window-maximized="1">
    <inkscape:grid
       type="xygrid"
       id="grid836"
       originx="-10.583333"
       originy="-321.79166" />
  </sodipodi:namedview>
  <metadata
     id="metadata5">
    <rdf:RDF>
      <cc:Work
         rdf:about="">
        <dc:format>image/svg+xml</dc:format>
        <dc:type
           rdf:resource="http://purl.org/dc/dcmitype/StillImage" />
        <dc:title></dc:title>
      </cc:Work>
    </rdf:RDF>
  </metadata>
  <g
     inkscape:label="Layer 1"
     inkscape:groupmode="layer"
     id="layer1"
     transform="translate(-5.2916667,-92.226365)">
    <path
       style="fill:none;stroke:#ffffff;stroke-width:1;stroke-linecap:butt;stroke-linejoin:miter;stroke-miterlimit:4;stroke-dasharray:none;stroke-opacity:1"
       d="m 27.68676,92.226365 v 43.377805 h 0.09449"
       id="path826"
       inkscape:connector-curvature="0" />
    <path
       style="fill:none;stroke:#ffffff;stroke-width:1;stroke-linecap:butt;stroke-linejoin:miter;stroke-miterlimit:4;stroke-dasharray:none;stroke-opacity:1"
       d="M 5.2916667,113.11458 H 182.468"
       id="path828"
       inkscape:connector-curvature="0" />
    <circle
       style="opacity:1;fill:#048d40;fill-opacity:1;stroke:#ffffff;stroke-width:0.99999994;stroke-linejoin:bevel;stroke-miterlimit:4;stroke-dasharray:none;stroke-dashoffset:0;stroke-opacity:1"
       id="path834"
       cx="27.727793"
       cy="113.20696"
       r="3.8568814" />
    <path
       style="opacity:1;fill:#008d40;fill-opacity:1;stroke:none;stroke-width:3.77952743;stroke-linejoin:bevel;stroke-miterlimit:4;stroke-dasharray:none;stroke-dashoffset:0;stroke-opacity:1"
       d="m 152.81445,353.04492 c -2.89368,-0.006 -5.01001,0.0874 -5.83789,0.11719 v -0.0527 h -21.9707 v 54.4746 h 21.9707 v -17.17187 c 26.08511,0 45.5,2.76111 45.5,-18.30859 0,-17.12468 -13.9319,-19.0586 -39.66211,-19.0586 z m -3.48242,11.39258 c 6.95333,-0.0159 22.91992,-1.47225 22.91992,7.9082 0,9.62551 -20.73229,7.75386 -25.27539,7.61719 V 364.4707 c 0.55261,-0.0139 1.36214,-0.0309 2.35547,-0.0332 z"
       transform="scale(0.26458333)"
       id="rect872"
       inkscape:connector-curvature="0"
       sodipodi:nodetypes="cccccccsccccccc" />
    <path
       style="opacity:1;fill:#008d40;fill-opacity:1;stroke:none;stroke-width:0.99999994;stroke-linejoin:bevel;stroke-miterlimit:4;stroke-dasharray:none;stroke-dashoffset:0;stroke-opacity:1"
       d="m 53.754584,93.450632 h 5.813112 v 14.412988 h -5.813112 z"
       id="rect872-2"
       inkscape:connector-curvature="0" />
    <path
       style="opacity:1;fill:#008d40;fill-opacity:1;stroke:none;stroke-width:3.77952743;stroke-linejoin:bevel;stroke-miterlimit:4;stroke-dasharray:none;stroke-dashoffset:0;stroke-opacity:1"
       d="m 271.07227,365.9082 c -17.4526,0.084 -29.46529,3.03895 -29.82813,12.14258 l 19.76563,0.16406 c -0.0218,-6.17319 15.68922,-6.81609 15.91992,0.0996 0,13.21769 -39.02362,-0.21028 -39.11524,17.63086 0.11728,13.71372 33.92891,14.76302 40.57227,7.29297 0.5142,2.33254 0.18333,5.39759 4.08203,4.79688 l 18.15625,-0.0625 c -1.97673,-0.94768 -3.95459,-1.89454 -3.83984,-5.63086 -0.18402,-16.99321 3.76025,-36.37316 -25.71289,-36.4336 z m 4.76757,24.24414 -0.13086,3.73243 c -0.10416,2.97112 -4.83935,6.39955 -10.19726,6.39955 -4.28462,0 -7.73438,-0.96564 -7.73438,-3.93862 0,-2.97301 2.76487,-6.23095 10.71094,-6.05078 z"
       transform="scale(0.26458333)"
       id="rect872-5"
       inkscape:connector-curvature="0"
       sodipodi:nodetypes="ccccccccccccsscc" />
    <path
       inkscape:connector-curvature="0"
       style="opacity:1;fill:#ffffff;fill-opacity:1;stroke:none;stroke-width:0.99999994;stroke-linejoin:bevel;stroke-miterlimit:4;stroke-dasharray:none;stroke-dashoffset:0;stroke-opacity:1"
       d="m 152.18896,97.476509 v 10.404011 h 5.30717 v -6.61458 c 0,-1.643475 4.98634,-1.695643 5.00281,0.022 l 0.0635,6.62569 h 5.31182 c 0,-4.41328 0.85285,-10.456128 -5.74825,-10.456128 -1.37599,0 -3.83322,-0.323914 -4.62992,1.351772 v -1.332735 z"
       id="rect872-2-1-1"
       sodipodi:nodetypes="ccccsccsccc" />
    <path
       inkscape:connector-curvature="0"
       style="opacity:1;fill:#ffffff;fill-opacity:1;stroke:none;stroke-width:0.99999994;stroke-linejoin:bevel;stroke-miterlimit:4;stroke-dasharray:none;stroke-dashoffset:0;stroke-opacity:1"
       d="m 113.49141,93.609136 c -0.76562,-0.0016 -1.32557,0.02312 -1.54461,0.03101 v -0.01394 h -5.81308 v 14.413064 h 5.81308 v -4.54339 c 7.37436,0 12.03854,0.73055 12.03854,-4.844148 0,-4.530905 -3.22335,-5.042588 -10.49393,-5.042588 z m -0.92139,3.014287 c 1.83974,-0.0042 6.06423,-0.256881 6.06423,2.092378 0,2.559899 -5.48542,2.051549 -6.68745,2.015389 v -4.098983 c 0.14621,-0.0037 0.3604,-0.0082 0.62322,-0.0088 z"
       id="rect872-4"
       sodipodi:nodetypes="cccccccscccscccc" />
    <path
       style="opacity:1;fill:#ffffff;fill-opacity:1;stroke:none;stroke-width:3.77952719;stroke-linejoin:bevel;stroke-miterlimit:4;stroke-dasharray:none;stroke-dashoffset:0;stroke-opacity:1"
       d="m 516.31641,367.30273 c -5.61806,-0.0692 -9.68127,0.76618 -12.37696,6.81641 v -6.56641 h -21.91211 v 39.5625 h 21.91211 v -15.69335 c 3.41012,-8.29131 8.77126,-10.90636 21.01953,-9.18165 v -14.6875 c -3.21363,0 -6.08891,-0.21854 -8.64257,-0.25 z"
       transform="scale(0.26458333)"
       id="rect872-2-4"
       inkscape:connector-curvature="0" />
    <path
       style="opacity:1;fill:#ffffff;fill-opacity:1;stroke:none;stroke-width:1;stroke-linejoin:bevel;stroke-miterlimit:4;stroke-dasharray:none;stroke-dashoffset:0;stroke-opacity:1"
       d="m 141.81989,96.476578 h 5.81312 v 11.420442 h -5.81312 z"
       id="rect872-2-0"
       inkscape:connector-curvature="0" />
    <path
       style="opacity:1;fill:#ffffff;fill-opacity:1;stroke:none;stroke-width:3.77952743;stroke-linejoin:bevel;stroke-miterlimit:4;stroke-dasharray:none;stroke-dashoffset:0;stroke-opacity:1"
       d="m 655.96875,356.95312 0.004,11.39063 c -4.26911,0.02 -7.66993,0.0546 -7.66993,0.10547 v 7.87305 c 0,0.0509 3.40172,0.0874 7.67188,0.10742 l 0.008,20.65625 c 0,2.63251 1.42788,10.25586 8.5332,10.25586 h 23.69922 v -8.06836 c -6.52293,0 -10.26953,-0.61696 -10.26953,-7.07617 l -0.002,-15.75782 c 5.69704,-0.0117 10.27148,-0.056 10.27148,-0.11718 v -7.87305 c 0,-0.0612 -4.57531,-0.10547 -10.27343,-0.11719 l -0.002,-11.37891 z"
       transform="scale(0.26458333)"
       id="rect872-2-7"
       inkscape:connector-curvature="0" />
    <path
       style="opacity:1;fill:#ffffff;fill-opacity:1;stroke:none;stroke-width:0.99999994;stroke-linejoin:bevel;stroke-miterlimit:4;stroke-dasharray:none;stroke-dashoffset:0;stroke-opacity:1"
       d="m 141.78648,93.049727 h 5.81312 v 2.586304 h -5.81312 z"
       id="rect872-2-0-8"
       inkscape:connector-curvature="0" />
    <path
       inkscape:connector-curvature="0"
       style="opacity:1;fill:#ffffff;fill-opacity:1;stroke:none;stroke-width:0.99999988;stroke-linejoin:bevel;stroke-miterlimit:4;stroke-dasharray:none;stroke-dashoffset:0;stroke-opacity:1"
       d="m 163.26735,120.01113 c -0.76072,-0.0127 -1.31089,0.14617 -1.6759,1.30046 v -1.25276 h -2.96701 v 7.54789 h 2.96701 v -2.99404 c 0.46174,-1.58184 1.18767,-2.08075 2.84615,-1.75171 v -2.80214 c -0.43514,0 -0.82447,-0.0417 -1.17025,-0.0478 z"
       id="rect872-2-4-0" />
    <rect
       style="opacity:1;fill:#ffffff;fill-opacity:1;stroke:none;stroke-width:1;stroke-linejoin:bevel;stroke-miterlimit:4;stroke-dasharray:none;stroke-dashoffset:0;stroke-opacity:1"
       id="rect1102"
       width="2.6058779"
       height="2.6058779"
       x="153.67998"
       y="124.81161"
       rx="3.3011532"
       ry="0.033408672" />
    <rect
       style="opacity:1;fill:#ffffff;fill-opacity:1;stroke:none;stroke-width:1;stroke-linejoin:bevel;stroke-miterlimit:4;stroke-dasharray:none;stroke-dashoffset:0;stroke-opacity:1"
       id="rect1102-5"
       width="2.6058779"
       height="2.6058779"
       x="164.33736"
       y="124.77821"
       rx="3.3011534"
       ry="0.033408672" />
    <rect
       style="opacity:1;fill:#ffffff;fill-opacity:1;stroke:none;stroke-width:1;stroke-linejoin:bevel;stroke-miterlimit:4;stroke-dasharray:none;stroke-dashoffset:0;stroke-opacity:1"
       id="rect1102-2"
       width="2.6058779"
       height="2.6058779"
       x="179.5717"
       y="124.84501"
       rx="3.3011534"
       ry="0.033408672" />
    <path
       style="opacity:1;fill:#ffffff;fill-opacity:1;stroke:none;stroke-width:3.77952766;stroke-linejoin:bevel;stroke-miterlimit:4;stroke-dasharray:none;stroke-dashoffset:0;stroke-opacity:1"
       d="m 655.49023,451.35938 c -9.67026,-10e-6 -17.45507,6.47135 -17.45507,16.47263 0,10.00129 7.78481,16.47268 17.45507,16.47268 9.67027,0 17.45704,-6.47139 17.45704,-16.47268 0,-10.00128 -7.78677,-16.47263 -17.45704,-16.47263 z m 0,8.21289 c 4.17975,0 6.29493,3.24528 6.29493,8.25975 0,5.01446 -2.11518,8.25978 -6.29493,8.25978 -4.17974,0 -6.11439,-3.24532 -6.11439,-8.25979 0,-5.01446 1.93465,-8.25974 6.11439,-8.25974 z"
       transform="scale(0.26458333)"
       id="rect1176"
       inkscape:connector-curvature="0"
       sodipodi:nodetypes="ccsccscscs" />
    <path
       inkscape:connector-curvature="0"
       style="opacity:1;fill:#008d40;fill-opacity:1;stroke:none;stroke-width:0.99999994;stroke-linejoin:bevel;stroke-miterlimit:4;stroke-dasharray:none;stroke-dashoffset:0;stroke-opacity:1"
       d="m 82.619762,97.393021 v 10.404019 h 5.307166 v -6.61458 c 0,-1.643484 4.98634,-1.695654 5.00281,0.022 l 0.0635,6.62569 h 5.31182 c 0,-4.41328 0.85285,-10.456135 -5.74825,-10.456135 -1.37599,0 -3.83322,-0.323914 -4.62992,1.351772 v -1.332736 z"
       id="rect872-2-1-1-0"
       sodipodi:nodetypes="ccccsccsccc" />
    <path
       style="opacity:1;fill:#ffffff;fill-opacity:1;stroke:none;stroke-width:1;stroke-linejoin:bevel;stroke-miterlimit:4;stroke-dasharray:none;stroke-dashoffset:0;stroke-opacity:1"
       d="m 147.93106,119.9184 a 3.8528392,2.3901874 0 0 0 -3.85273,2.39045 3.8528392,2.3901874 0 0 0 3.81742,2.38933 1.1630049,0.72149387 0 0 1 1.12735,0.72012 1.1630049,0.72149387 0 0 1 -1.16266,0.72177 1.1630049,0.72149387 0 0 1 -1.16322,-0.72177 1.1630049,0.72149387 0 0 1 5.4e-4,-0.009 c -0.44501,0.004 -0.92079,0.009 -1.51305,0.009 -0.46059,0 -0.79792,-0.004 -1.17702,-0.006 a 3.8528392,2.3901874 0 0 0 -5.5e-4,0.006 3.8528392,2.3901874 0 0 0 3.8533,2.39045 3.8528392,2.3901874 0 0 0 3.85273,-2.39045 3.8528392,2.3901874 0 0 0 -3.81742,-2.38934 1.1630049,0.72149387 0 0 1 -1.12735,-0.72011 1.1630049,0.72149387 0 0 1 1.16266,-0.72177 1.1630049,0.72149387 0 0 1 1.16322,0.72177 1.1630049,0.72149387 0 0 1 -5.4e-4,0.009 c 0.44502,-0.004 0.92025,-0.009 1.51251,-0.009 0.46059,0 0.79791,0.004 1.177,0.006 a 3.8528392,2.3901874 0 0 0 10e-4,-0.006 3.8528392,2.3901874 0 0 0 -3.8533,-2.39045 z"
       id="path1222"
       inkscape:connector-curvature="0" />
  </g>
</svg>
