<svg xmlns="http://www.w3.org/2000/svg" width="100.00001mm" height="25mm" viewBox="0 0 100.00001 25"><g transform="translate(-30 -82)"><g aria-label="PLANPRINT" style="line-height:1.25;-inkscape-font-specification:'Kimberley, Heavy';font-variant-ligatures:normal;font-variant-caps:normal;font-variant-numeric:normal;font-feature-settings:normal;text-align:start" font-weight="900" font-size="12.19224834px" font-family="Kimberley" letter-spacing="0" word-spacing="0" stroke-width=".2"><path d="M48.325 86.016q0-.388-.344-.388h-1.996v1.464h1.996q.344 0 .344-.389zM44 93v-9.847h4.727q1.572 0 1.572 1.84v2.591q0 1.697-1.572 1.697h-2.742V93zM51.08 93v-9.847h1.986v7.372h3.155V93zM61.496 93v-4.043h-2.639V93h-1.973v-8.124q0-1.723 1.606-1.723h3.385q1.606 0 1.606 1.723V93zm0-7.048q0-.39-.344-.39h-1.95q-.345 0-.345.39v.932h2.64zM69.483 93l-3.017-5.209V93H64.48v-9.847h1.904l2.777 5.144v-5.144h1.985V93z" style="-inkscape-font-specification:'Kimberley, Heavy';font-variant-ligatures:normal;font-variant-caps:normal;font-variant-numeric:normal;font-feature-settings:normal;text-align:start" fill="#00b717"/><path d="M76.492 86.016q0-.388-.344-.388h-1.996v1.464h1.996q.344 0 .344-.389zM72.167 93v-9.847h4.727q1.571 0 1.571 1.84v2.591q0 1.697-1.571 1.697h-2.742V93zM83.573 85.952q0-.39-.344-.39h-1.997v1.465h1.997q.344 0 .344-.389zM83.63 93q-.023-.09-.046-.207-.011-.13-.011-.311v-2.98q0-.389-.344-.389h-1.997V93h-1.984v-9.847h4.692q1.583 0 1.583 1.84v1.555q0 1.334-.963 1.528.516.13.745.48.241.35.241.933v2.915q0 .26.012.376.023.116.046.22zM86.508 93v-9.847h1.985V93zM94.513 93l-3.018-5.209V93H89.51v-9.847h1.905l2.776 5.144v-5.144h1.985V93zM98.883 93v-7.372h-1.996v-2.475h5.965v2.475h-1.996V93z" style="-inkscape-font-specification:'Kimberley, Heavy';font-variant-ligatures:normal;font-variant-caps:normal;font-variant-numeric:normal;font-feature-settings:normal;text-align:start" fill="#fff"/></g><g aria-label="S.R.O." style="line-height:1.25;-inkscape-font-specification:'Kimberley, Heavy';font-variant-ligatures:normal;font-variant-caps:normal;font-variant-numeric:normal;font-feature-settings:normal;text-align:start" font-weight="900" font-size="9.28239918px" font-family="Kimberley" letter-spacing="0" word-spacing="0" stroke-width=".26458335" fill="#fff"><path d="M102.854 92.88v-1.646h3.41q.3 0 .3-.258v-.43q0-.26-.3-.26h-2.02q-1.4 0-1.4-1.145v-1.56q0-1.248 1.35-1.248h3.921v1.645h-3.24q-.3 0-.3.259v.422q0 .258.3.258h2.08q1.33 0 1.33 1.154v1.534q0 1.275-1.45 1.275zM109.486 92.88q-.36 0-.36-.336v-.965q0-.345.4-.345h.94q.38 0 .38.345v.965q0 .336-.38.336zM115.495 88.193q0-.258-.3-.258h-1.74v.973h1.74q.3 0 .3-.258zm.05 4.687q-.02-.06-.04-.138-.01-.086-.01-.207v-1.981q0-.259-.3-.259h-1.74v2.585h-1.73v-6.547h4.09q1.381 0 1.381 1.223v1.034q0 .887-.84 1.016.45.086.65.319.21.232.21.62v1.938q0 .173.01.25.02.078.04.147zM118.414 92.88q-.36 0-.36-.336v-.965q0-.345.4-.345h.94q.38 0 .38.345v.965q0 .336-.38.336zM124.383 88.237q0-.259-.3-.259h-1.44q-.3 0-.3.259v2.739q0 .258.3.258h1.44q.3 0 .3-.258zm-2.4 4.643q-1.37 0-1.37-1.146V87.53q0-1.197 1.37-1.197h2.75q1.37 0 1.37 1.197v4.204q0 1.146-1.37 1.146zM127.303 92.88q-.36 0-.36-.336v-.965q0-.345.4-.345h.94q.38 0 .38.345v.965q0 .336-.38.336z" style="-inkscape-font-specification:'Kimberley, Heavy';font-variant-ligatures:normal;font-variant-caps:normal;font-variant-numeric:normal;font-feature-settings:normal;text-align:start"/></g><path fill="none" stroke="#fff" stroke-width="1.99999881" stroke-linejoin="bevel" stroke-opacity=".99583333" d="M44 97h86v0H44z"/><circle cx="40" cy="97" r="4" fill="none" stroke="#fff" stroke-width="1.99999988" stroke-linejoin="round"/><path fill="none" stroke="#fff" stroke-width="2" stroke-linejoin="bevel" stroke-opacity=".99583333" d="M30 97h6v0h-6z"/><path fill="none" stroke="#fff" stroke-width="1.99999964" stroke-linejoin="bevel" stroke-opacity=".99583333" d="M40 82h0v11h0z"/><path fill="none" stroke="#fff" stroke-width="1.9999994" stroke-linejoin="bevel" stroke-opacity=".99583333" d="M40 101h0v6h0z"/></g></svg>