<svg width="539.885" height="126.259" clip-rule="evenodd" fill-rule="evenodd" image-rendering="optimizeQuality" shape-rendering="geometricPrecision" text-rendering="geometricPrecision" viewBox="0 0 5623.8 1315.2" xmlns="http://www.w3.org/2000/svg">
  <g transform="translate(-725.85 -2358.1)">
    <g aria-label="Plan" fill="#5ea541">
      <path d="M2085.284 2587.1h66.31q64.566 0 86.379-10.828 21.813-10.828 21.813-38.392 0-27.891-20.94-38.72-20.94-10.828-87.25-10.828h-66.311zm-206.352 266.12v-483.34h264.371q87.687 0 138.733 7.875 51.479 7.547 85.943 24.61 44.499 22.641 66.31 56.111 21.813 33.47 21.813 79.41 0 81.048-63.693 124.36-63.694 42.985-183.657 42.985h-123.46v147.99zM2533.325 2853.3v-483.34h190.212v483.34zM3151.01 2694.1q-27.046 7.875-71.98 16.735-70.675 14.11-70.675 37.736 0 15.094 13.96 23.626 13.96 8.532 39.7 8.532 47.115 0 68.491-16.407 21.813-16.407 21.813-52.173 0-7.548-.436-11.157 0-3.938-.873-6.891zm17.45 159.15l-11.778-34.126q-36.21 23.954-78.09 35.439t-94.23 11.485q-80.272 0-124.333-29.532-43.626-29.86-43.626-84.002 0-52.83 43.189-78.096 43.188-25.266 163.156-36.751 15.27-1.64 41.008-3.61 89.433-7.218 89.433-34.781 0-15.423-16.577-22.314-16.142-7.219-51.479-7.219-29.229 0-44.934 8.86-15.705 8.532-18.323 26.58H2837.78q1.309-60.05 65.438-90.566 64.13-30.845 188.456-30.845 58.459 0 107.755 8.204 49.733 8.203 77.217 21.985 33.592 17.063 47.117 38.72 13.523 21.329 13.523 61.36v198.85q0 9.845 5.235 17.72 5.235 7.547 15.27 12.469v10.172zM3446.825 2853.3v-356.68h171.452v52.173q33.155-31.173 73.727-46.267 41.009-15.422 92.486-15.422 43.188 0 77.217 10.828t57.586 32.157q21.377 19.36 30.101 47.251 9.162 27.563 9.162 90.565v185.4h-188.457v-184.74q0-40.689-14.396-55.783-14.396-15.422-49.733-15.422-35.772 0-53.222 17.719t-17.45 54.142v184.08z"/>
    </g>
    <g aria-label="Print" fill="#d4d5d6">
      <path d="M4272.311 2587.1h66.31q64.566 0 86.38-10.828 21.812-10.828 21.812-38.392 0-27.891-20.94-38.72-20.939-10.828-87.25-10.828h-66.31zm-206.352 266.12v-483.34h264.372q87.687 0 138.733 7.875 51.478 7.547 85.943 24.61 44.498 22.641 66.31 56.111 21.813 33.47 21.813 79.41 0 81.048-63.694 124.36-63.693 42.985-183.657 42.985h-123.46v147.99zM4716.763 2853.3v-356.68h174.071v64.971q18.76-38.72 53.66-56.439 35.337-18.047 93.795-18.047h17.014v141.43q-10.47-.656-20.068-.984-9.597-.657-18.323-.657-57.15 0-84.197 19.36-26.611 19.36-26.611 60.705v146.35zM5128.642 2460.2v-102.05h190.212v102.05zm0 393.11v-356.68h190.212v356.68zM5426.184 2853.3v-356.68h171.453v52.173q33.155-31.173 73.727-46.267 41.008-15.422 92.487-15.422 43.188 0 77.217 10.828t57.586 32.157q21.377 19.36 30.101 47.251 9.161 27.563 9.161 90.565v185.4H5749.46v-184.74q0-40.689-14.396-55.783-14.396-15.422-49.733-15.422-35.772 0-53.222 17.719t-17.45 54.142v184.08zM6254.596 2721q0 18.048 13.96 25.595 13.96 7.219 49.732 7.219h15.705q5.672-.328 10.907-.656v102.71q-34.9 1.64-63.694 2.297-28.357.984-53.222.984-89.87 0-125.642-22.64-35.337-22.642-35.337-79.41v-178.83h-66.747v-81.706h66.747v-110.25h187.593v110.25h88.559v81.706h-88.56z"/>
    </g>
    <g aria-label="s.r.o." fill="#d4d5d6">
      <path d="M4908.858 3417.6h116.487q0 18.803 9.708 28.068 9.985 9.265 29.678 9.265 18.86 0 28.845-6.267 10.263-6.268 10.263-18.258 0-19.893-44.655-29.431-3.884-.818-6.102-1.363-84.595-17.713-110.391-38.15t-25.794-59.953q0-47.689 37.72-72.488 38-25.07 110.666-25.07 67.399 0 104.284 23.435 37.166 23.436 42.713 69.762h-107.897q-1.387-13.353-11.927-21.256-10.262-7.903-26.072-7.903-15.81 0-24.13 5.45-8.32 5.178-8.32 15.26 0 17.714 40.771 26.162 10.818 2.18 16.365 3.27 82.098 18.53 106.787 39.514 24.685 20.71 24.685 61.042 0 50.959-40.494 76.848-40.218 25.888-119.266 25.888-73.224 0-111.775-25.888-38.275-25.888-42.16-77.938zM5271.704 3510.8v-120.45h120.375v120.45zM5459.182 3510.8v-296.22h110.666v53.957q11.926-32.156 34.115-46.872 22.466-14.988 59.633-14.988h10.817v117.45q-6.656-.545-12.759-.818-6.102-.545-11.648-.545-36.335 0-53.53 16.078-16.92 16.078-16.92 50.414v121.54zM5667.22 3510.8v-120.45h120.376v120.45zM5959.838 3362.2q0 41.149 11.372 59.135 11.649 17.986 37.999 17.986 26.348 0 37.998-17.986 11.927-18.258 11.927-59.135 0-40.604-11.927-58.317-11.649-17.986-37.998-17.986-26.35 0-37.999 17.713-11.372 17.713-11.372 58.59zm-121.21 0q0-73.578 45.488-115.82 45.487-42.512 125.087-42.512t124.813 42.512q45.488 42.239 45.488 115.82 0 74.123-45.488 116.63t-124.813 42.512-125.087-42.512q-45.488-42.512-45.488-116.63zM6229.148 3510.8v-120.45h120.375v120.45z"/>
    </g>
    <path class="fil2 str0" fill="none" stroke="#d4d5d6" stroke-miterlimit="2.613" stroke-width="27.78" d="M725.89 3003.4l5609.71 18.3M1618.9 2358.1v1315.2"/>
    <ellipse cx="1620.9" cy="3012" rx="123.98" ry="115.13" fill="#5fa641" stroke="#fefefe" stroke-miterlimit="2.613" stroke-width="41.67"/>
  </g>
</svg>